<svg width="150" height="124" viewBox="0 0 150 124" fill="none" xmlns="http://www.w3.org/2000/svg">
<path fill-rule="evenodd" clip-rule="evenodd" d="M44.5 124H105L106.5 123L107 120.25V117.5V112L105 110.5H98.5V105L95.5 102H82.5V26L92 23.5L96.5 22.5L102 23.5L114.5 30.5L124.5 31.5L126 34L128.5 36L115.5 72.5L113 73L111.5 74.5L112 80.5L114 85.5L116.5 89L122 94L128.5 96H135.5L140.5 93.5L146 89.5L148.5 84L150 79.5V74.5L149.5 73.5L146.5 73L133 36L137.5 33L138 30V26.5L136.5 23.5L133.5 22L129 21.5L126 23.5L113 17L101 10.5L94.5 9L87 10L82.5 11.5L80.5 10V6L80 2.5L78 0.5L75.5 0L71 1L69 4V10.5L67.5 11.5L62 10L56.5 9L46.5 11L24.5 23.5L21.5 22L17 21.5L13.5 23L11.5 26L11 30.5L13.5 34L16 36L3 72.5L0 73.5V80L2 87L5 90.5L8 93L16 96L22.5 95.5L27.5 94C31 91.3333 36.5 86.2 36.5 85C36.5 84.5753 36.6879 83.5746 36.9306 82.2814C37.3738 79.9203 38 76.5844 38 74L34.5 72.5L21.5 36L25.5 31.5L29.5 31L34 30.5L45 25.5L46.5 24L50 22.5L54 22L68 26V102H56L52.5 103.5L51 106V110.5H44.5L43 112.5V118V122L44.5 124ZM119.5 72.5L131 40.5L143 73L119.5 72.5ZM146.5 77V80.5L144.5 84.5L142 88L139 90.5L134.5 92H126.5L120 88L116.5 83L115.5 80.5V77H146.5ZM78 102H71.5V30H78V102ZM85 14L85.5 21L89.5 20L96.5 19L102 19.5L106.5 22L111 25L115.5 26.5L120 27.5L123.5 28V26.5L99.5 13.5L92 13L85 14ZM128.5 32L127.5 29.5V27L129.5 25H132L134.5 27V30.5L132.5 32.5L131 33L128.5 32ZM67.5 19L69 14.5L72 13L74.5 12.5H77L79.5 13.5L81.5 16.5V19V22L79.5 25L75 26L72 25.5L69 23.5L67.5 19ZM73 4.5L75 3.5L77 4.5L77.5 8.5H73V4.5ZM26.5 26L51.5 13H58.5L62.5 13.5L65 14.5L64.5 21.5L58 19.5L52 19L48 19.5L45 21.5L38 25L32 27.5L26.5 28V26ZM30 72.5L19 40.5L7 72.5H30ZM34.5 76.5H3L3.5 81.5L5 85.5L9.5 90L15.5 92L20 92.5L25.5 91L31.5 86.5L34 81.5L34.5 76.5ZM18.5 33L16 32L15 30V26.5L18.5 25L20 25.5L22 27.5V30.5L21 32.5L18.5 33ZM47 114V120H102.5V114H47ZM54.5 110.5V106.5L56 105.5H74.5H84H90H94.5L95.5 107.5V110.5H54.5Z" fill="#3D4D3D"/>
</svg>
